/* XPM */
static char * FreeMindWindowIcon_xpm[] = {
"32 32 365 2",
"  	c None",
". 	c #404040",
"+ 	c #404244",
"@ 	c #403223",
"# 	c #401E00",
"$ 	c #402000",
"% 	c #401F00",
"& 	c #403D3E",
"* 	c #404312",
"= 	c #3F412A",
"- 	c #3E4027",
"; 	c #3F3300",
"> 	c #401C00",
", 	c #3D1E00",
"' 	c #3D2000",
") 	c #3C1E00",
"! 	c #3C240D",
"~ 	c #3B2200",
"{ 	c #4E352D",
"] 	c #5E442B",
"^ 	c #534000",
"/ 	c #3E3A00",
"( 	c #412600",
"_ 	c #513200",
": 	c #511C00",
"< 	c #653200",
"[ 	c #673200",
"} 	c #553000",
"| 	c #5B3D0F",
"1 	c #59380D",
"2 	c #492C00",
"3 	c #464B49",
"4 	c #544042",
"5 	c #624243",
"6 	c #482200",
"7 	c #663100",
"8 	c #834100",
"9 	c #824200",
"0 	c #A25200",
"a 	c #A75300",
"b 	c #8E5700",
"c 	c #6F4000",
"d 	c #4E2500",
"e 	c #3A1B00",
"f 	c #56562B",
"g 	c #413A29",
"h 	c #543C3C",
"i 	c #633B38",
"j 	c #592E21",
"k 	c #512C0F",
"l 	c #774619",
"m 	c #A65913",
"n 	c #B14E00",
"o 	c #B06500",
"p 	c #D06200",
"q 	c #C86300",
"r 	c #B15E00",
"s 	c #7C3400",
"t 	c #4D1B00",
"u 	c #403933",
"v 	c #3E3F01",
"w 	c #432900",
"x 	c #583224",
"y 	c #622F18",
"z 	c #562200",
"A 	c #512C00",
"B 	c #674005",
"C 	c #653F34",
"D 	c #664641",
"E 	c #492608",
"F 	c #83492E",
"G 	c #BE7547",
"H 	c #C47826",
"I 	c #C26000",
"J 	c #CB6000",
"K 	c #E26000",
"L 	c #C76200",
"M 	c #AC4900",
"N 	c #7A2A00",
"O 	c #501E00",
"P 	c #402200",
"Q 	c #3F3A00",
"R 	c #5B4400",
"S 	c #622A00",
"T 	c #613202",
"U 	c #734805",
"V 	c #884500",
"W 	c #854300",
"X 	c #884400",
"Y 	c #866136",
"Z 	c #6B483B",
"` 	c #7B3E3B",
" .	c #4C260C",
"..	c #86512B",
"+.	c #BA6542",
"@.	c #C45F20",
"#.	c #C35F00",
"$.	c #C86000",
"%.	c #E36000",
"&.	c #E16000",
"*.	c #C66200",
"=.	c #AD4B00",
"-.	c #742A00",
";.	c #561C00",
">.	c #404000",
",.	c #3F2100",
"'.	c #593900",
").	c #5C3F00",
"!.	c #815125",
"~.	c #A5632E",
"{.	c #A06000",
"].	c #A46000",
"^.	c #C16000",
"/.	c #A36000",
"(.	c #A56200",
"_.	c #764C00",
":.	c #4F3001",
"<.	c #3F1E01",
"[.	c #452000",
"}.	c #5F2000",
"|.	c #3E1E00",
"1.	c #92573A",
"2.	c #A26214",
"3.	c #B06000",
"4.	c #D06000",
"5.	c #E06000",
"6.	c #AD4A00",
"7.	c #341C00",
"8.	c #513500",
"9.	c #815321",
"0.	c #B06247",
"a.	c #C06031",
"b.	c #BD6000",
"c.	c #BF5F00",
"d.	c #BD5F00",
"e.	c #BB5D00",
"f.	c #BE5F25",
"g.	c #A3522B",
"h.	c #713400",
"i.	c #5A1E00",
"j.	c #422000",
"k.	c #5C1F00",
"l.	c #7C3C04",
"m.	c #B25B01",
"n.	c #C66400",
"o.	c #C56300",
"p.	c #CB6300",
"q.	c #E46100",
"r.	c #A94400",
"s.	c #A94500",
"t.	c #3D1F00",
"u.	c #511F00",
"v.	c #834527",
"w.	c #B16634",
"x.	c #CB5F01",
"y.	c #DF6300",
"z.	c #DD7D00",
"A.	c #E27E00",
"B.	c #D2832B",
"C.	c #BA7525",
"D.	c #9E5704",
"E.	c #733800",
"F.	c #421E00",
"G.	c #3F2000",
"H.	c #441E00",
"I.	c #432200",
"J.	c #642700",
"K.	c #712900",
"L.	c #6E2900",
"M.	c #742900",
"N.	c #6B2500",
"O.	c #522500",
"P.	c #421B00",
"Q.	c #673208",
"R.	c #99551D",
"S.	c #B96433",
"T.	c #D4642C",
"U.	c #D27000",
"V.	c #D47100",
"W.	c #AC5D00",
"X.	c #864511",
"Y.	c #74360A",
"Z.	c #612D00",
"`.	c #452400",
" +	c #391D00",
".+	c #412100",
"++	c #62332D",
"@+	c #6A3210",
"#+	c #6C3100",
"$+	c #643100",
"%+	c #573200",
"&+	c #6D3000",
"*+	c #5C1D00",
"=+	c #7D470E",
"-+	c #7D4F21",
";+	c #8B4F1E",
">+	c #883900",
",+	c #873A00",
"'+	c #6A2A00",
")+	c #642800",
"!+	c #742B00",
"~+	c #792C00",
"{+	c #6B2E00",
"]+	c #5B2D00",
"^+	c #9F511E",
"/+	c #B3540A",
"(+	c #B75300",
"_+	c #B85300",
":+	c #AC5300",
"<+	c #955400",
"[+	c #A35200",
"}+	c #713100",
"|+	c #622000",
"1+	c #583A00",
"2+	c #592E00",
"3+	c #632600",
"4+	c #702600",
"5+	c #723200",
"6+	c #8D4800",
"7+	c #A75000",
"8+	c #B44F00",
"9+	c #AE5007",
"0+	c #844917",
"a+	c #7D3D00",
"b+	c #B95E00",
"c+	c #E96200",
"d+	c #DF6200",
"e+	c #C26201",
"f+	c #90501C",
"g+	c #6E2E02",
"h+	c #7A4B25",
"i+	c #6B2802",
"j+	c #934B12",
"k+	c #AB4901",
"l+	c #AB6000",
"m+	c #C46400",
"n+	c #CE6200",
"o+	c #C96200",
"p+	c #BD6414",
"q+	c #945A42",
"r+	c #7B3D00",
"s+	c #B55C00",
"t+	c #DA6100",
"u+	c #DD6000",
"v+	c #BF6000",
"w+	c #BF6002",
"x+	c #AC6335",
"y+	c #874503",
"z+	c #734D24",
"A+	c #632700",
"B+	c #8E4B06",
"C+	c #C4623C",
"D+	c #C26204",
"E+	c #C06000",
"F+	c #D56000",
"G+	c #E46000",
"H+	c #D66000",
"I+	c #B96210",
"J+	c #925835",
"K+	c #7B3E00",
"L+	c #B65C00",
"M+	c #D76100",
"N+	c #D46000",
"O+	c #C36100",
"P+	c #904A08",
"Q+	c #4F2500",
"R+	c #532D00",
"S+	c #A96401",
"T+	c #C05F00",
"U+	c #D36000",
"V+	c #D76000",
"W+	c #B86200",
"X+	c #915700",
"Y+	c #793C00",
"Z+	c #B75C02",
"`+	c #D26000",
" @	c #D86000",
".@	c #A8643B",
"+@	c #6F2F11",
"@@	c #6C2D0F",
"#@	c #A7643C",
"$@	c #C04100",
"%@	c #C05A00",
"&@	c #BD6100",
"*@	c #DA6200",
"=@	c #B25B00",
"-@	c #783C00",
";@	c #3F1F00",
">@	c #965A39",
",@	c #A14A12",
"'@	c #C65100",
")@	c #E66300",
"!@	c #DB6000",
"~@	c #C36200",
"{@	c #8E4903",
"]@	c #652701",
"^@	c #562B00",
"/@	c #AE680A",
"(@	c #C26200",
"_@	c #C25B00",
":@	c #C25F00",
"<@	c #C56200",
"[@	c #BD5600",
"}@	c #8B3900",
"|@	c #472506",
"1@	c #8A5030",
"2@	c #AC5019",
"3@	c #B84E00",
"4@	c #CB6400",
"5@	c #CA6300",
"6@	c #C46300",
"7@	c #914900",
"8@	c #472500",
"9@	c #823500",
"0@	c #684825",
"a@	c #5E2E00",
"b@	c #B14C00",
"c@	c #AC6200",
"d@	c #AA6300",
"e@	c #BB6300",
"f@	c #C56100",
"g@	c #BC6100",
"h@	c #874A00",
"i@	c #381B00",
"j@	c #512C0D",
"k@	c #744924",
"l@	c #945738",
"m@	c #974B25",
"n@	c #934800",
"o@	c #7B2E00",
"p@	c #4D2300",
"q@	c #7D3400",
"r@	c #993E00",
"s@	c #795B3D",
"t@	c #614022",
"u@	c #662A00",
"v@	c #8E4D00",
"w@	c #8F5100",
"x@	c #A94E00",
"y@	c #BC5E00",
"z@	c #945500",
"A@	c #5C3500",
"B@	c #4F3414",
"C@	c #58361F",
"D@	c #572A15",
"E@	c #542C00",
"F@	c #483102",
"G@	c #4F4426",
"H@	c #96450B",
"I@	c #7E5E41",
"J@	c #482C1C",
"K@	c #5F2F02",
"L@	c #603000",
"M@	c #6D2E00",
"N@	c #763C00",
"O@	c #613900",
"P@	c #391A00",
"Q@	c #382100",
"R@	c #3E4703",
"S@	c #636745",
"T@	c #634346",
"U@	c #3C1F05",
"V@	c #391C00",
"W@	c #371D00",
"X@	c #361B00",
"                                                                ",
"                                                                ",
"                                                                ",
"                                                                ",
"                                                      . + @ # $ ",
"                                                  % & * = - ; > ",
"                                              , ' ) ! ~ { ] ^ / ",
"                                            ( _ : < [ } | 1 2   ",
"    3 4 5                                 6 7 8 9 0 a b c d e   ",
"  f g h i j                             k l m n o p q r s t '   ",
"u v w x y z A B C D                   E F G H I J K L M N O     ",
"P Q R S T U V W X Y Z             `  ...+.@.#.$.%.&.*.=.-.;.    ",
">.,.'.).!.~.{.].^./.(._.:.<.$ [.}.|.1.2.3.4.K 5.5.5.*.6.S 7.    ",
"  $ % 8.9.0.a.b.c.d.d.e.f.g.h.i.j.k.l.m.n.o.o.p.q.r.s.-.        ",
"    t.u.v.w.x.y.z.z.A.B.C.D.E.F.G.H.I.J.K.L.L.K.M.N.O.          ",
"      P.Q.R.S.T.U.V.W.X.Y.Z.`. +.+8.++@+#+#+$+%+&+*+            ",
"          =+-+;+>+,+'+)+!+~+{+]+.+c ^+/+(+_+:+<+[+}+|+          ",
"            1+2+3+4+5+6+7+8+9+0+$ a+b+y.c+c+d+o.e+f+g+h+        ",
"              i+j+k+l+m+n+o+p+q+% r+s+t+%.u+4.v+w+x+y+z+        ",
"            A+B+C+D+E+F+G+H+I+J+% K+L+M+K N+v+E+E+O+P+Q+        ",
"            R+S+E+T+E+b.U+V+W+X+% Y+Z+v+`+G+ @v+E+^..@+@        ",
"            @@#@E+$@%@&@N+*@=@-@;@;@>@,@'@)@K !@v+~@{@]@        ",
"            ^@/@(@_@:@E+<@[@}@I.    |@1@2@3@4@5@6@7@8@9@        ",
"            0@a@b@c@d@e@f@g@h@i@      j@k@l@m@n@o@p@q@r@        ",
"            s@t@u@v@w@x@y@z@A@          B@C@D@E@F@G@H@          ",
"              I@J@K@L@M@N@O@              P@i@Q@R@S@            ",
"                T@U@V@W@X@                                      ",
"                                                                ",
"                                                                ",
"                                                                ",
"                                                                ",
"                                                                "};
